<svg width="24" height="24" viewBox="0 0 24 24" fill="none" xmlns="http://www.w3.org/2000/svg">
<g id="arrow-right">
<path id="Vector " fill-rule="evenodd" clip-rule="evenodd" d="M11.4697 4.46967C11.7626 4.17678 12.2374 4.17678 12.5303 4.46967L19.5303 11.4697C19.671 11.6103 19.75 11.8011 19.75 12C19.75 12.1989 19.671 12.3897 19.5303 12.5303L12.5303 19.5303C12.2374 19.8232 11.7626 19.8232 11.4697 19.5303C11.1768 19.2374 11.1768 18.7626 11.4697 18.4697L17.1894 12.75H5.00002C4.5858 12.75 4.25002 12.4142 4.25002 12C4.25002 11.5858 4.5858 11.25 5.00002 11.25H17.1894L11.4697 5.53033C11.1768 5.23744 11.1768 4.76257 11.4697 4.46967Z" fill="white"/>
</g>
</svg>
