<svg width="24" height="24" viewBox="0 0 24 24" fill="none" xmlns="http://www.w3.org/2000/svg">
<g id="arrow-right">
<path id="Vector " fill-rule="evenodd" clip-rule="evenodd" d="M8.20017 8.70018C8.20017 8.42403 8.42402 8.20018 8.70017 8.20018L15.2998 8.20016C15.4324 8.20016 15.5596 8.25284 15.6534 8.34661C15.7472 8.44037 15.7998 8.56755 15.7998 8.70016V15.2998C15.7998 15.576 15.576 15.7998 15.2998 15.7998C15.0237 15.7998 14.7998 15.576 14.7998 15.2998V9.90727L9.05372 15.6534C8.85846 15.8486 8.54188 15.8486 8.34662 15.6534C8.15135 15.4581 8.15135 15.1415 8.34662 14.9463L14.0927 9.20016L8.70017 9.20018C8.42403 9.20018 8.20017 8.97632 8.20017 8.70018Z" fill="#191A23"/>
</g>
</svg>
