<svg width="24" height="24" viewBox="0 0 24 24" fill="none" xmlns="http://www.w3.org/2000/svg">
<g id="Group 1">
<path id="Star 1" d="M12 0L14.9413 1.98289L18.4877 1.90496L19.89 5.16325L22.9156 7.01502L22.3337 10.5142L23.8779 13.7078L21.4966 16.3369L21.069 19.8583L17.6443 20.7827L15.3808 23.5139L12 22.44L8.61921 23.5139L6.35571 20.7827L2.93101 19.8583L2.50344 16.3369L0.122143 13.7078L1.66626 10.5142L1.08442 7.01502L4.10997 5.16325L5.51231 1.90496L9.05871 1.98289L12 0Z" fill="#191A23"/>
<path id="Star 2" d="M11.7622 5.73176C11.8371 5.50143 12.1629 5.50143 12.2378 5.73176L13.5155 9.66414C13.5489 9.76714 13.6449 9.83688 13.7532 9.83688H17.888C18.1302 9.83688 18.2309 10.1468 18.0349 10.2891L14.6898 12.7195C14.6022 12.7831 14.5656 12.896 14.599 12.999L15.8767 16.9314C15.9516 17.1617 15.688 17.3532 15.492 17.2109L12.1469 14.7805C12.0593 14.7169 11.9407 14.7169 11.8531 14.7805L8.50798 17.2109C8.31205 17.3532 8.04843 17.1617 8.12327 16.9314L9.40097 12.999C9.43444 12.896 9.39778 12.7831 9.31015 12.7195L5.96508 10.2891C5.76915 10.1468 5.86984 9.83688 6.11202 9.83688H10.2468C10.3551 9.83688 10.4511 9.76714 10.4845 9.66413L11.7622 5.73176Z" fill="white"/>
</g>
</svg>
